<svg width="28" height="30" viewBox="0 0 28 30" fill="none" xmlns="http://www.w3.org/2000/svg">
<path d="M21.8433 9.50526C20.8589 9.80646 19.3849 8.76206 20.0873 7.01326C20.4565 6.09486 21.3837 5.84726 22.4877 6.44166C23.3557 6.90846 23.4897 9.00166 21.8433 9.50526ZM23.3881 4.94926C26.2757 7.43406 25.5401 13.3129 25.5189 16.6413C25.5093 18.1689 25.6085 19.6553 25.5105 20.8889C25.2861 23.7137 24.7397 25.2889 21.5657 26.0449C19.2765 26.5893 16.9805 26.4985 14.6581 26.3801C12.9961 26.2953 11.3469 26.3009 9.68409 26.3633C8.30169 26.4153 6.79969 26.3929 5.55009 25.7141C2.51009 24.0637 2.42329 18.4353 2.52849 15.2357C2.55169 14.5473 2.56529 13.8665 2.54929 13.2009C2.45209 9.15726 3.36449 3.93966 7.96849 3.81606C11.5525 3.72006 15.1321 3.55606 18.7149 3.68206C20.3061 3.73846 22.1237 3.86126 23.3881 4.94926ZM27.9221 10.2901C27.8461 7.78526 27.4357 5.29406 25.7581 3.54926C24.4697 2.20966 22.5825 1.62006 20.7905 1.33206C16.2465 0.60126 11.4321 0.998861 6.86089 1.29766C4.63169 1.44366 1.75729 3.14526 0.919291 5.30326C0.0896909 7.43846 0.105691 9.45646 0.0840907 11.7117C0.0684907 13.3621 0.0380906 15.0141 0.106491 16.6629C0.225691 19.5481 0.019691 22.0653 1.08849 24.8069C1.30969 25.3741 1.58009 25.8381 1.99409 26.3017C2.91369 27.3313 3.76969 28.0829 5.09729 28.4769C6.83289 28.9917 8.69129 28.8469 10.4997 28.8469C14.6753 28.8469 19.5317 29.7045 23.5145 28.1461C26.7989 26.8613 27.9725 23.7249 27.8821 20.4721C27.8325 18.6753 27.9433 16.8825 27.9065 15.0877C27.8757 13.6265 27.9729 11.9553 27.9221 10.2901ZM21.0513 14.1257C20.8349 12.8157 20.2097 11.3921 19.3657 10.3857C17.7981 8.51686 14.1393 6.51006 9.73369 9.24566C7.52529 10.6173 6.60169 14.2161 6.92929 16.4429C6.97489 16.7545 7.04249 17.0573 7.12969 17.3509C8.41689 21.6857 14.0021 23.9121 17.7905 21.1985C19.9509 19.6513 21.4969 16.8245 21.0513 14.1257ZM18.4669 16.1673C17.9517 18.3097 16.0333 19.8957 13.7945 19.7001C11.8457 19.5293 10.4745 18.4917 9.87049 17.0753C9.38929 15.9469 9.39529 14.5773 9.98409 13.2137C10.8865 11.1249 13.4953 10.0181 15.6121 10.9509C17.4577 11.7633 18.9485 14.1645 18.4669 16.1673Z" fill="#FF6600"/>
</svg>
