<svg width="31" height="18" viewBox="0 0 31 18" fill="none" xmlns="http://www.w3.org/2000/svg">
<path d="M29.6113 16.9685C28.5752 17.6017 24.3604 17.7901 23.3403 17.0669C22.7807 16.6705 22.269 16.1741 21.7828 15.7021C21.4433 15.3717 21.0571 15.2113 20.7651 14.8529C20.5273 14.5593 20.3637 14.2133 20.1124 13.9245C19.6889 13.4385 19.0362 13.0253 18.5196 13.6189C17.7426 14.5113 18.6422 16.2657 17.6057 16.9329C17.258 17.1569 16.9074 17.2217 16.4733 17.1897L15.5114 17.2325C14.946 17.2433 14.051 17.2481 13.4085 17.1349C12.691 17.0089 12.0994 16.6265 11.4516 16.3457C10.2208 15.8133 9.04775 15.0877 8.15559 14.0825C5.72757 11.3453 2.46602 7.58049 1.19912 4.13889C0.93795 3.43169 0.25038 2.03209 0.90269 1.42529C1.78993 0.796493 6.14618 0.618493 6.82514 1.59169C7.10148 1.98649 7.27532 2.56609 7.47048 3.01369C7.7132 3.57209 7.84522 4.09889 8.22488 4.59329C8.56108 5.03209 8.80954 5.47289 9.06989 5.95409C9.36222 6.49369 9.63774 7.01129 9.99321 7.50849C10.2343 7.84649 10.8718 8.51809 11.2745 8.56849C12.2576 8.69129 12.1961 6.36009 12.1232 5.79049C12.0535 5.24209 12.035 4.66049 12.0535 4.10409C12.0694 3.62969 12.1133 2.96129 11.8251 2.57369C11.3556 1.94169 10.3101 2.41489 10.2281 1.56569C10.4012 1.32449 10.3643 1.11049 11.518 0.740093C12.4261 0.448493 13.0129 0.457693 13.6119 0.504493C14.8337 0.600093 16.1289 0.277293 17.3076 0.663693C18.4335 1.03369 18.2596 2.59489 18.2219 3.53089C18.1715 4.80889 18.2252 6.05569 18.2219 7.35209C18.2203 7.94289 18.1965 8.51689 18.9337 8.46929C19.6257 8.42409 19.6959 7.85649 20.0259 7.38769C20.4855 6.73449 20.9066 6.07249 21.3744 5.42129C22.0046 4.54169 22.1944 3.55329 22.7877 2.65209C23 2.32929 23.1825 1.62489 23.5093 1.37009C23.7569 1.17769 24.2268 1.26009 24.5261 1.26009H25.2378C25.7831 1.26649 26.3391 1.27409 26.8987 1.29329C27.7052 1.32049 28.6084 1.14969 29.4083 1.25969C32.8589 1.73489 25.0714 8.93609 25.4764 10.2209C25.7569 11.1081 27.533 12.1021 28.1742 12.8293C29.0291 13.7965 31.6494 15.7241 29.6113 16.9685Z" fill="#FF6600"/>
</svg>
