<svg width="305" height="35" viewBox="0 0 305 35" fill="none" xmlns="http://www.w3.org/2000/svg">
<g clip-path="url(#clip0_101_1196)">
<path fill-rule="evenodd" clip-rule="evenodd" d="M40.7974 20.0542H45.3719V20.2434C45.3719 20.9056 45.5586 21.3785 45.932 21.5677C46.3055 21.8515 46.8656 21.9461 47.7058 21.9461H48.9195C49.6664 21.9461 50.1331 21.8515 50.4132 21.6623C50.6933 21.4731 50.88 21.0948 50.88 20.6218V19.865C50.88 19.4867 50.7866 19.1083 50.5066 18.9191C50.3199 18.7299 49.7597 18.6353 48.9195 18.4461L45.0918 18.0677C43.6915 17.8786 42.5712 17.5002 41.9177 16.7434C41.2642 15.9867 40.8907 14.8515 40.8907 13.4326V12.2975C40.8907 11.4461 40.9841 10.6894 41.2642 10.0272C41.5442 9.36504 41.9177 8.79747 42.3844 8.41909C42.8512 8.04071 43.318 7.75693 43.9715 7.66233C44.625 7.47314 45.4653 7.47314 46.6789 7.47314H49.573C51.3468 7.47314 52.6538 7.85152 53.5874 8.51368C54.521 9.27044 54.9878 10.311 54.9878 11.6353V12.865H50.4132V12.6758C50.4132 12.1083 50.3199 11.7299 50.0398 11.5407C49.7597 11.3515 49.2929 11.2569 48.7328 11.2569H47.6125C46.8656 11.2569 46.3055 11.3515 46.0254 11.5407C45.7453 11.7299 45.5586 12.0137 45.5586 12.4867V13.2434C45.5586 13.9056 46.2121 14.284 47.5191 14.4731L51.0667 14.8515C52.5604 15.0407 53.6807 15.5137 54.4276 16.1758C55.1745 16.9326 55.5479 17.8785 55.5479 19.2029V20.9056C55.5479 22.4191 55.0811 23.5542 54.1475 24.5002C53.214 25.3515 52.0003 25.8245 50.5066 25.8245H46.6789C44.625 25.8245 43.1313 25.4461 42.1977 24.784C41.2642 24.0272 40.7974 22.8921 40.7974 21.284V20.0542ZM63.4833 18.8245H67.4043L65.5372 11.3515H65.2571L63.4833 18.8245ZM56.6682 25.6353L61.8029 7.66233H69.0848L74.0327 25.6353H68.8981L68.1512 22.5137H62.5497L61.7095 25.6353H56.6682ZM81.0346 16.365H83.6486C84.3955 16.365 84.9556 16.2704 85.2357 15.9867C85.5158 15.7029 85.7025 15.2299 85.7025 14.4731V13.811C85.7025 13.0542 85.5158 12.4867 85.2357 12.2029C84.9556 11.9191 84.3955 11.7299 83.6486 11.7299H81.0346V16.365ZM76.2733 25.6353V7.66233H83.4619C86.1693 7.66233 88.0364 8.04071 89.0634 8.79747C90.0903 9.55423 90.5571 10.784 90.5571 12.5813V14.0002C90.5571 15.2299 90.277 16.1758 89.7169 16.838C89.1567 17.5002 88.3165 17.9731 87.1028 18.0677C88.3165 18.2569 89.1567 18.6353 89.7169 19.2975C90.277 19.865 90.5571 20.811 90.5571 21.8515V25.5407H85.7025V22.3245C85.7025 21.5677 85.5158 21.0002 85.2357 20.7164C84.9556 20.4326 84.3955 20.338 83.6486 20.338H81.0346V25.5407H76.2733V25.6353ZM99.2394 18.8245H103.16L101.387 11.3515H101.107L99.2394 18.8245ZM92.5176 25.6353L97.6523 7.66233H104.934L109.882 25.6353H104.747L103.907 22.5137H98.3058L97.4656 25.6353H92.5176ZM112.123 25.6353V7.66233H119.218L124.726 21.0002V7.66233H129.301V25.6353H122.205L116.697 12.2029V25.6353H112.123ZM132.008 20.0542H136.582V20.2434C136.582 20.9056 136.769 21.3785 137.049 21.5677C137.423 21.8515 137.983 21.9461 138.823 21.9461H140.037C140.784 21.9461 141.25 21.8515 141.53 21.6623C141.811 21.4731 141.997 21.0948 141.997 20.6218V19.865C141.997 19.4867 141.904 19.1083 141.624 18.9191C141.437 18.7299 140.877 18.6353 140.037 18.4461L136.209 18.0677C134.809 17.8786 133.688 17.5002 133.035 16.7434C132.381 15.9867 132.008 14.8515 132.008 13.4326V12.2975C132.008 11.4461 132.101 10.6894 132.381 10.0272C132.661 9.36504 133.035 8.79747 133.502 8.41909C133.968 8.04071 134.435 7.75693 135.089 7.66233C135.742 7.47314 136.582 7.47314 137.796 7.47314H140.69C142.464 7.47314 143.771 7.85152 144.705 8.51368C145.638 9.27044 146.105 10.311 146.105 11.6353V12.865H141.53V12.6758C141.53 12.1083 141.437 11.7299 141.157 11.5407C140.877 11.3515 140.41 11.2569 139.85 11.2569H138.73C137.983 11.2569 137.423 11.3515 137.143 11.5407C136.863 11.7299 136.676 12.0137 136.676 12.4867V13.2434C136.676 13.9056 137.329 14.284 138.636 14.4731L142.184 14.8515C143.678 15.0407 144.798 15.5137 145.545 16.1758C146.292 16.9326 146.665 17.8785 146.665 19.2029V20.9056C146.665 22.4191 146.198 23.5542 145.265 24.5002C144.331 25.3515 143.118 25.8245 141.624 25.8245H137.796C135.742 25.8245 134.249 25.4461 133.315 24.784C132.381 24.0272 131.915 22.8921 131.915 21.284V20.0542H132.008ZM149.746 25.6353V7.66233H154.507V14.3785H154.881L159.175 7.66233H164.87L158.988 16.365L165.43 25.6353H159.549L154.881 18.4461H154.507V25.6353H149.746Z" fill="black"/>
<path fill-rule="evenodd" clip-rule="evenodd" d="M167.484 25.6353V7.66233H169.444V15.4191H179.62V7.66233H181.581V25.6353H179.62V17.311H169.444V25.6353H167.484ZM191.944 25.6353H189.983V17.6894L182.608 7.66233H184.942L190.917 15.9867L196.892 7.66233H199.226L191.944 17.5948V25.6353ZM200.439 25.6353V7.66233H209.028C211.269 7.66233 212.762 8.13531 213.696 8.98666C214.63 9.83801 215.003 11.4461 215.003 13.6218V19.5813C215.003 21.8515 214.536 23.365 213.696 24.311C212.762 25.1623 211.269 25.6353 209.028 25.6353H200.439ZM202.306 23.838H208.561C210.242 23.838 211.455 23.5542 212.016 22.9867C212.576 22.4191 212.856 21.284 212.856 19.6758V13.9056C212.856 12.2029 212.576 10.9731 212.016 10.4056C211.455 9.83801 210.335 9.55423 208.561 9.55423H202.306V23.838ZM226.299 9.55423H220.604V16.7434H226.299C227.793 16.7434 228.727 16.5542 229.193 16.1758C229.66 15.7975 229.847 15.1353 229.847 14.1894V12.1083C229.847 11.1623 229.66 10.5002 229.193 10.1218C228.727 9.74341 227.793 9.55423 226.299 9.55423ZM218.644 25.6353V7.66233H226.673C228.633 7.66233 230.034 7.94612 230.78 8.51368C231.527 9.08125 231.901 10.2164 231.901 11.7299V14.4731C231.901 15.4191 231.714 16.1758 231.341 16.6488C230.967 17.2164 230.407 17.5002 229.66 17.6894C230.5 17.8786 231.061 18.2569 231.434 18.8245C231.807 19.3921 231.901 20.1488 231.901 21.3786V25.7299H229.847V22.0407C229.847 20.7164 229.66 19.865 229.287 19.3921C228.913 18.9191 228.073 18.7299 226.953 18.7299H220.698V25.7299H218.644V25.6353ZM238.156 19.2029H245.811L242.264 9.55423H241.61L238.156 19.2029ZM233.861 25.6353L240.396 7.66233H243.664L250.292 25.6353H248.238L246.558 21.0002H237.596L235.915 25.6353H233.861ZM252.439 7.66233H254.4V19.4867C254.4 20.6218 254.493 21.4731 254.587 21.9461C254.68 22.4191 254.96 22.7975 255.24 23.0813C255.52 23.365 255.894 23.5542 256.361 23.6488C256.827 23.7434 257.574 23.838 258.601 23.838H260.468C261.589 23.838 262.335 23.7434 262.802 23.6488C263.269 23.5542 263.642 23.365 263.923 23.0813C264.203 22.7975 264.389 22.4191 264.576 21.9461C264.669 21.4731 264.763 20.7164 264.763 19.4867V7.66233H266.723V19.6758C266.723 21.9461 266.256 23.5542 265.416 24.5002C264.483 25.4461 262.989 25.8245 260.655 25.8245H258.508C256.267 25.8245 254.68 25.3515 253.747 24.5002C252.813 23.5542 252.439 22.0407 252.439 19.6758V7.66233ZM270.831 25.6353V7.66233H272.792V23.7434H282.874V25.6353H270.831ZM285.395 25.6353V7.66233H287.355V25.6353H285.395ZM291.09 13.6218C291.09 11.3515 291.556 9.74341 292.397 8.79747C293.237 7.85152 294.824 7.47314 296.971 7.47314H299.025C301.172 7.47314 302.759 7.85152 303.6 8.60828C304.44 9.36504 304.907 10.6894 304.907 12.5813V13.338H302.853V12.865C302.853 11.5407 302.573 10.5948 302.013 10.1218C301.452 9.64882 300.425 9.36504 298.838 9.36504H297.438C296.411 9.36504 295.571 9.45963 295.104 9.55423C294.637 9.64882 294.17 9.9326 293.89 10.2164C293.61 10.5002 293.33 10.8786 293.237 11.4461C293.144 11.9191 293.05 12.865 293.05 14.1894V19.2975C293.05 20.6218 293.144 21.4731 293.237 22.0407C293.33 22.5137 293.61 22.8921 293.89 23.2704C294.17 23.5542 294.637 23.838 295.104 23.9326C295.571 24.0272 296.318 24.1218 297.438 24.1218H298.838C300.519 24.1218 301.546 23.838 302.106 23.365C302.666 22.7975 302.946 21.8515 302.946 20.338C302.946 20.1488 302.946 19.9596 302.946 19.7704C302.946 19.6758 302.946 19.5813 302.946 19.3921H305V20.5272C305 22.5137 304.533 23.9326 303.693 24.6894C302.853 25.4461 301.266 25.8245 299.025 25.8245H296.971C294.731 25.8245 293.237 25.3515 292.397 24.5002C291.556 23.5542 291.09 22.0407 291.09 19.6758V13.6218Z" fill="#808080"/>
<path fill-rule="evenodd" clip-rule="evenodd" d="M1.12045 14.6623L14.4706 1.13528C16.0577 -0.472828 18.5784 -0.472828 20.0721 1.13528L21.4724 2.5542L7.46878 16.7434C7.09535 17.1218 7.09535 17.8785 7.46878 18.2569L9.14922 19.9596C9.52265 20.338 10.2695 20.338 10.6429 19.9596L13.6304 16.9326L17.8315 21.1893L17.9249 21.2839L12.8835 26.392C11.2964 28.0001 8.68243 27.9056 7.1887 26.2974L1.30716 20.338C-0.37328 18.8245 -0.37328 16.2704 1.12045 14.6623ZM21.8459 8.60825C23.433 7.00015 25.9536 7.00015 27.4473 8.60825L33.4222 14.6623C35.0093 16.2704 35.0093 18.8245 33.4222 20.338L20.0721 33.865C18.485 35.4731 15.9643 35.4731 14.4706 33.865L13.0702 32.4461L27.0739 18.2569C27.4473 17.8785 27.4473 17.1218 27.0739 16.7434L25.3935 15.0407C25.02 14.6623 24.2732 14.6623 23.8998 15.0407L20.9123 18.0677L16.7112 13.811L21.8459 8.60825Z" fill="#FF6600"/>
<path fill-rule="evenodd" clip-rule="evenodd" d="M43.3179 32.0674C43.3179 32.162 43.3179 32.162 43.3179 32.162L43.2246 32.2566C43.1312 32.2566 43.1312 32.3512 43.0379 32.3512C42.9445 32.3512 42.8511 32.4458 42.7578 32.4458C42.6644 32.4458 42.5711 32.4458 42.3844 32.4458C42.1976 32.4458 41.9176 32.4458 41.7308 32.3512C41.5441 32.2566 41.3574 32.162 41.2641 31.9728C41.1707 31.7837 40.984 31.5945 40.984 31.4053C40.8906 31.2161 40.8906 30.9323 40.8906 30.6485C40.8906 30.3647 40.8906 30.0809 40.984 29.8918C41.0773 29.7026 41.1707 29.4188 41.2641 29.3242C41.3574 29.135 41.5441 29.0404 41.7308 28.9458C41.9176 28.8512 42.1043 28.8512 42.3844 28.8512C42.4777 28.8512 42.5711 28.8512 42.6644 28.8512C42.7578 28.8512 42.8511 28.8512 42.9445 28.9458C43.0379 28.9458 43.1312 29.0404 43.1312 29.0404C43.2246 29.0404 43.2246 29.135 43.2246 29.135C43.2246 29.135 43.2246 29.135 43.3179 29.2296C43.3179 29.2296 43.3179 29.2296 43.3179 29.3242V29.4188V29.5134V29.608C43.3179 29.608 43.2246 29.608 43.2246 29.5134C43.1312 29.5134 43.1312 29.4188 43.0379 29.4188C42.9445 29.4188 42.8511 29.3242 42.7578 29.3242C42.6644 29.3242 42.5711 29.2296 42.3844 29.2296C42.1976 29.2296 42.1043 29.2296 41.9176 29.3242C41.8242 29.4188 41.6375 29.5134 41.5441 29.608C41.4508 29.7026 41.3574 29.8918 41.3574 30.0809C41.2641 30.2701 41.2641 30.4593 41.2641 30.6485C41.2641 30.8377 41.2641 31.1215 41.3574 31.2161C41.4508 31.4053 41.4508 31.4999 41.5441 31.6891C41.6375 31.7837 41.7308 31.8782 41.9176 31.9728C42.0109 32.162 42.1976 32.162 42.3844 32.162C42.5711 32.162 42.6644 32.162 42.7578 32.0674C42.8511 32.0674 42.9445 31.9728 43.0379 31.9728C43.1312 31.9728 43.1312 31.8782 43.2246 31.8782C43.3179 31.8782 43.3179 31.7837 43.3179 31.7837C43.3179 31.7837 43.3179 31.7837 43.3179 31.8782C43.3179 31.9728 43.3179 31.9728 43.3179 32.0674ZM50.1331 32.3512V32.4458C50.1331 32.4458 50.1331 32.4458 50.1331 32.5404C50.1331 32.5404 50.133 32.5404 50.0397 32.5404H49.9463C49.853 32.5404 49.853 32.5404 49.853 32.5404H49.7596L49.4795 31.6891H47.9858L47.7057 32.5404C47.7057 32.5404 47.7057 32.5404 47.6124 32.5404H47.519C47.4257 32.5404 47.4257 32.5404 47.4257 32.5404H47.3323C47.3323 32.5404 47.3323 32.5404 47.3323 32.4458V32.3512L48.546 29.0404C48.546 29.0404 48.546 29.0404 48.546 28.9458C48.546 28.9458 48.546 28.9458 48.6393 28.9458H48.7327H48.826C48.9194 28.9458 48.9194 28.9458 49.0128 28.9458H49.1061C49.1061 28.9458 49.1061 28.9458 49.1995 28.9458C49.1995 28.9458 49.1995 28.9458 49.1995 29.0404L50.1331 32.3512ZM48.546 29.4188L47.9858 31.2161H49.1995L48.546 29.4188ZM56.388 29.9864C56.388 30.1755 56.388 30.3647 56.2947 30.4593C56.2013 30.6485 56.108 30.7431 56.0146 30.8377C55.9212 30.9323 55.7345 31.0269 55.6412 31.0269C55.4544 31.2161 55.2677 31.2161 55.081 31.2161H54.7076V32.5404C54.7076 32.5404 54.7076 32.5404 54.6142 32.5404H54.5209H54.4275H54.3342V29.2296C54.3342 29.135 54.3342 29.135 54.4275 29.0404L54.5209 28.9458H55.081C55.1744 28.9458 55.2677 28.9458 55.2677 28.9458C55.3611 28.9458 55.4544 28.9458 55.5478 28.9458C55.6412 28.9458 55.7345 29.0404 55.8279 29.0404C55.9212 29.135 56.0146 29.135 56.1079 29.2296C56.2013 29.3242 56.2013 29.4188 56.2947 29.5134C56.2947 29.7972 56.388 29.8918 56.388 29.9864ZM55.8279 30.0809C55.8279 29.8918 55.8279 29.7972 55.7345 29.7026C55.6412 29.608 55.6412 29.5134 55.5478 29.5134C55.4544 29.5134 55.3611 29.4188 55.2677 29.4188C55.1744 29.4188 55.081 29.4188 54.9877 29.4188H54.5209V30.8377H55.081C55.2677 30.8377 55.3611 30.8377 55.4544 30.7431C55.5478 30.7431 55.6412 30.6485 55.7345 30.5539C55.8279 30.4593 55.8279 30.4593 55.9212 30.3647C55.8279 30.2701 55.8279 30.1755 55.8279 30.0809ZM62.9231 32.3512V32.4458C62.9231 32.4458 62.9231 32.4458 62.9231 32.5404C62.9231 32.5404 62.9231 32.5404 62.8297 32.5404H62.7364C62.643 32.5404 62.643 32.5404 62.643 32.5404H62.5496L62.2696 31.6891H60.7758L60.4958 32.5404C60.4958 32.5404 60.4958 32.5404 60.4024 32.5404H60.3091C60.2157 32.5404 60.2157 32.5404 60.2157 32.5404H60.1223C60.1223 32.5404 60.1223 32.5404 60.1223 32.4458V32.3512L61.336 29.0404C61.336 29.0404 61.336 29.0404 61.336 28.9458C61.336 28.9458 61.336 28.9458 61.4293 28.9458H61.5227H61.6161C61.7094 28.9458 61.7094 28.9458 61.8028 28.9458H61.8961C61.8961 28.9458 61.8961 28.9458 61.9895 28.9458C61.9895 28.9458 61.9895 28.9458 61.9895 29.0404L62.9231 32.3512ZM61.336 29.4188L60.7758 31.2161H61.9895L61.336 29.4188ZM69.4581 32.4458C69.3648 32.5404 69.3648 32.5404 69.3648 32.5404H69.2714C69.178 32.5404 69.178 32.5404 69.178 32.5404H69.0847V30.9323H67.4976V32.5404C67.4976 32.5404 67.4976 32.5404 67.4042 32.5404H67.3109H67.2175H67.1242V29.135C67.1242 29.135 67.1242 29.135 67.2175 29.135H67.3109C67.4042 29.135 67.4042 29.135 67.4042 29.135H67.4976V30.5539H69.0847V29.135C69.0847 29.135 69.0847 29.135 69.178 29.135H69.2714H69.3648H69.4581V32.4458ZM76.2732 32.0674C76.2732 32.162 76.2732 32.162 76.2732 32.162L76.1799 32.2566C76.0865 32.2566 76.0865 32.3512 75.9932 32.3512C75.8998 32.3512 75.8064 32.4458 75.7131 32.4458C75.6197 32.4458 75.433 32.4458 75.3397 32.4458C75.1529 32.4458 74.8729 32.4458 74.6862 32.3512C74.4994 32.2566 74.3127 32.162 74.2194 31.9728C74.126 31.7837 74.0326 31.5945 73.9393 31.4053C73.7526 31.4053 73.7526 31.1215 73.7526 30.8377C73.7526 30.5539 73.7526 30.2701 73.8459 30.0809C73.9393 29.8918 74.0327 29.608 74.126 29.5134C74.2194 29.3242 74.4061 29.2296 74.5928 29.135C74.7795 29.0404 74.9662 29.0404 75.2463 29.0404C75.3397 29.0404 75.433 29.0404 75.5264 29.0404C75.6197 29.0404 75.7131 29.0404 75.8064 29.135C75.8998 29.135 75.9932 29.2296 75.9932 29.2296C76.0865 29.2296 76.0865 29.3242 76.0865 29.3242C76.0865 29.3242 76.0865 29.3242 76.1799 29.4188C76.1799 29.4188 76.1799 29.4188 76.1799 29.5134V29.608V29.7026V29.7972C76.1799 29.7972 76.0865 29.7972 76.0865 29.7026C76.0865 29.7026 75.9932 29.608 75.8998 29.608C75.8065 29.608 75.7131 29.5134 75.6197 29.5134C75.5264 29.5134 75.433 29.4188 75.2463 29.4188C75.0596 29.4188 74.9662 29.4188 74.7795 29.5134C74.6862 29.608 74.4994 29.7026 74.4061 29.7972C74.3127 29.8918 74.2194 30.0809 74.2194 30.2701C74.126 30.4593 74.126 30.6485 74.126 30.8377C74.126 31.0269 74.126 31.3107 74.2194 31.4053C74.3127 31.5945 74.3127 31.6891 74.4061 31.8782C74.4994 31.9728 74.5928 32.0674 74.7795 32.162C74.8729 32.2566 75.0596 32.2566 75.2463 32.2566C75.433 32.2566 75.5264 32.2566 75.6197 32.162C75.7131 32.162 75.8065 32.0674 75.8998 32.0674C75.9932 32.0674 75.9932 31.9728 76.0865 31.9728C76.1799 31.9728 76.1799 31.8782 76.1799 31.8782C76.1799 31.8782 76.1799 31.8782 76.1799 31.9728C76.2732 31.9728 76.2732 31.9728 76.2732 32.0674ZM82.7149 32.4458C82.6216 32.5404 82.6216 32.5404 82.6216 32.5404H82.5282C82.4349 32.5404 82.4349 32.5404 82.4349 32.5404H82.3415C82.3415 32.5404 82.3415 32.5404 82.3415 32.4458L82.0614 31.5945C82.0614 31.4999 81.9681 31.4053 81.8747 31.3107C81.7813 31.2161 81.7813 31.1215 81.688 31.1215C81.5946 31.0269 81.5013 31.0269 81.5013 31.0269C81.4079 31.0269 81.3146 31.0269 81.2212 31.0269H81.0345V32.635C81.0345 32.635 81.0345 32.635 80.9411 32.635H80.8478H80.7544H80.6611V29.2296C80.6611 29.2296 80.6611 29.2296 80.7544 29.2296H80.8478H80.9411H81.0345V30.7431H81.2212C81.3146 30.7431 81.4079 30.7431 81.5013 30.7431C81.5946 30.7431 81.688 30.6485 81.688 30.6485C81.7813 30.5539 81.7813 30.5539 81.8747 30.4593C81.9681 30.3647 81.9681 30.2701 81.9681 30.1755L82.2481 29.4188C82.2481 29.4188 82.2481 29.4188 82.2481 29.3242C82.2481 29.3242 82.2481 29.3242 82.3415 29.3242H82.4349C82.5282 29.3242 82.5282 29.3242 82.5282 29.3242H82.6216C82.6216 29.3242 82.6216 29.3242 82.6216 29.4188V29.5134L82.3415 30.2701C82.3415 30.3647 82.2481 30.4593 82.2481 30.5539C82.2481 30.6485 82.1548 30.7431 82.0614 30.7431C81.9681 30.8377 81.9681 30.8377 81.8747 30.9323C81.7813 30.9323 81.7813 31.0269 81.688 31.0269C81.7813 31.0269 81.8747 31.1215 81.8747 31.1215C81.9681 31.1215 81.9681 31.2161 82.0614 31.3107C82.1548 31.4053 82.1548 31.4053 82.2481 31.4999C82.3415 31.5945 82.3415 31.6891 82.3415 31.7837L82.7149 32.635C82.7149 32.3512 82.7149 32.4458 82.7149 32.4458ZM89.5301 32.4458C89.4367 32.5404 89.4367 32.5404 89.4367 32.5404H89.3433H89.25H89.1566V30.1755C89.1566 30.0809 89.1566 30.0809 89.1566 29.9864C89.1566 29.8918 89.1566 29.8918 89.1566 29.7972C89.1566 29.7972 89.1566 29.8918 89.0633 29.8918C89.0633 29.8918 89.0633 29.9864 88.9699 29.9864C88.9699 29.9864 88.9699 30.0809 88.8765 30.0809C88.8765 30.0809 88.8765 30.1755 88.7832 30.1755L87.2895 32.5404C87.2895 32.5404 87.2895 32.5404 87.1961 32.5404H87.1027H87.0094H86.916V29.135C86.916 29.135 86.916 29.135 87.0094 29.135H87.1027H87.1961H87.2895V31.4999C87.2895 31.5945 87.2895 31.5945 87.2895 31.6891C87.2895 31.7837 87.2895 31.7837 87.2895 31.8782C87.2895 31.7837 87.3828 31.7837 87.3828 31.6891C87.3828 31.5945 87.4762 31.5945 87.4762 31.4999L88.9699 29.135C88.9699 29.135 88.9699 29.135 89.0633 29.135H89.1566H89.25H89.3433V32.4458H89.5301ZM96.6252 32.4458C96.5319 32.5404 96.5319 32.5404 96.5319 32.5404H96.4385H96.3452H96.2518V30.1755C96.2518 30.0809 96.2518 30.0809 96.2518 29.9864C96.2518 29.8918 96.2518 29.8918 96.2518 29.7972C96.2518 29.7972 96.2518 29.8918 96.1585 29.8918C96.1585 29.8918 96.1585 29.9864 96.0651 29.9864C96.0651 29.9864 96.0651 30.0809 95.9717 30.0809C95.9717 30.0809 95.9717 30.1755 95.8784 30.1755L94.3847 32.5404C94.3847 32.5404 94.3847 32.5404 94.2913 32.5404H94.1979H94.1046H94.0112V29.135C94.0112 29.135 94.0112 29.135 94.1046 29.135H94.1979C94.2913 29.135 94.2913 29.135 94.2913 29.135H94.3847V31.4999C94.3847 31.5945 94.3847 31.5945 94.3847 31.6891C94.3847 31.7837 94.3847 31.7837 94.3847 31.8782C94.3847 31.7837 94.478 31.7837 94.478 31.6891C94.478 31.5945 94.5714 31.5945 94.5714 31.4999L96.0651 29.135C96.0651 29.135 96.0651 29.135 96.1585 29.135H96.2518H96.3452H96.4385V32.4458H96.6252ZM96.1585 27.9999C96.1585 28.0945 96.1585 28.1891 96.0651 28.2837C96.0651 28.3782 95.9717 28.4728 95.8784 28.4728C95.785 28.5674 95.6917 28.5674 95.5983 28.662C95.505 28.662 95.4116 28.7566 95.2249 28.7566C95.1315 28.7566 94.9448 28.7566 94.8514 28.662C94.7581 28.662 94.6647 28.5674 94.5714 28.4728C94.478 28.3782 94.478 28.3782 94.3847 28.2837C94.3847 28.1891 94.2913 28.0945 94.2913 27.9999C94.2913 27.9999 94.2913 27.9999 94.2913 27.9053C94.2913 27.9053 94.2913 27.9053 94.3847 27.9053H94.478H94.5714H94.6647C94.6647 27.9053 94.6647 27.9053 94.6647 27.9999C94.6647 28.0945 94.6647 28.0945 94.6647 28.0945L94.7581 28.1891L94.8514 28.2837C94.9448 28.2837 94.9448 28.2837 95.0382 28.2837C95.1315 28.2837 95.1315 28.2837 95.2249 28.2837C95.3182 28.2837 95.3182 28.1891 95.3182 28.1891L95.4116 28.0945C95.4116 28.0945 95.4116 27.9999 95.4116 27.9053C95.4116 27.9053 95.4116 27.9053 95.505 27.9053H95.5983H95.6917C96.0651 27.9053 96.0651 27.9999 96.1585 27.9999ZM108.015 31.5945C108.015 31.7837 108.015 31.8782 107.922 32.0674C107.828 32.162 107.735 32.3512 107.641 32.4458C107.548 32.5404 107.361 32.635 107.268 32.635C107.081 32.7296 106.895 32.7296 106.708 32.7296C106.615 32.7296 106.521 32.7296 106.428 32.7296C106.334 32.7296 106.241 32.7296 106.148 32.635C106.054 32.635 106.054 32.5404 105.961 32.5404C105.961 32.5404 105.868 32.5404 105.868 32.4458C105.868 32.4458 105.868 32.4458 105.868 32.3512V32.2566V32.162C105.868 32.0674 105.868 32.0674 105.868 32.0674C105.868 32.0674 105.868 32.0674 105.961 32.0674H106.054C106.054 32.0674 106.148 32.162 106.241 32.162C106.334 32.162 106.334 32.2566 106.428 32.2566C106.521 32.2566 106.615 32.2566 106.801 32.2566C106.895 32.2566 106.988 32.2566 107.175 32.2566C107.268 32.2566 107.361 32.162 107.455 32.162C107.548 32.0674 107.548 32.0674 107.641 31.9728C107.641 31.8782 107.735 31.7837 107.735 31.6891C107.735 31.5945 107.735 31.4999 107.641 31.4053C107.641 31.3107 107.548 31.2161 107.455 31.2161C107.361 31.1215 107.268 31.1215 107.175 31.1215C107.081 31.1215 106.988 31.0269 106.801 31.0269H106.428C106.428 31.0269 106.428 31.0269 106.334 31.0269C106.334 31.0269 106.334 31.0269 106.334 30.9323V30.8377V30.7431C106.334 30.7431 106.334 30.7431 106.334 30.6485C106.334 30.6485 106.334 30.6485 106.428 30.6485H106.801C106.895 30.6485 106.988 30.6485 107.175 30.6485C107.268 30.6485 107.361 30.5539 107.455 30.5539C107.548 30.4593 107.548 30.4593 107.641 30.3647C107.641 30.2701 107.735 30.1755 107.735 30.0809C107.735 29.9864 107.735 29.8918 107.735 29.8918C107.735 29.7972 107.641 29.7972 107.641 29.7026C107.548 29.7026 107.548 29.608 107.455 29.608C107.361 29.608 107.268 29.608 107.175 29.608C107.081 29.608 106.988 29.608 106.895 29.608C106.801 29.608 106.708 29.7026 106.615 29.7026C106.521 29.7026 106.521 29.7972 106.428 29.7972C106.334 29.7972 106.334 29.7972 106.334 29.7972C106.334 29.7972 106.334 29.7972 106.334 29.7026V29.608V29.5134C106.334 29.5134 106.334 29.5134 106.334 29.4188C106.334 29.4188 106.334 29.4188 106.334 29.3242C106.334 29.3242 106.334 29.3242 106.334 29.2296C106.334 29.2296 106.428 29.2296 106.428 29.135C106.521 29.135 106.521 29.0404 106.615 29.0404C106.708 29.0404 106.801 28.9458 106.895 28.9458C106.988 28.9458 107.081 28.9458 107.268 28.9458C107.455 28.9458 107.641 28.9458 107.735 29.0404C107.828 29.0404 108.015 29.135 108.108 29.2296C108.202 29.3242 108.295 29.4188 108.295 29.5134C108.295 29.608 108.388 29.7026 108.388 29.8918C108.388 29.9864 108.388 30.0809 108.295 30.1755C108.295 30.2701 108.202 30.3647 108.108 30.4593C108.015 30.5539 108.015 30.5539 107.922 30.6485C107.828 30.6485 107.735 30.7431 107.641 30.7431C107.735 30.7431 107.828 30.7431 107.922 30.8377C108.015 30.9323 108.108 30.9323 108.202 31.0269C108.295 31.1215 108.295 31.2161 108.388 31.3107C108.015 31.3107 108.015 31.4053 108.015 31.5945ZM114.83 32.3512V32.4458C114.83 32.4458 114.83 32.4458 114.83 32.5404C114.83 32.5404 114.83 32.5404 114.737 32.5404H114.643C114.55 32.5404 114.55 32.5404 114.55 32.5404H114.457L114.177 31.6891H112.683L112.403 32.5404C112.403 32.5404 112.403 32.5404 112.309 32.5404H112.216C112.123 32.5404 112.123 32.5404 112.123 32.5404H112.029C112.029 32.5404 112.029 32.5404 112.029 32.4458V32.3512L113.243 29.0404C113.243 29.0404 113.243 29.0404 113.243 28.9458C113.243 28.9458 113.243 28.9458 113.336 28.9458H113.43H113.523C113.616 28.9458 113.616 28.9458 113.71 28.9458H113.803C113.803 28.9458 113.803 28.9458 113.896 28.9458C113.896 28.9458 113.896 28.9458 113.896 29.0404L114.83 32.3512ZM113.336 29.4188L112.683 31.2161H113.896L113.336 29.4188Z" fill="#333333"/>
<path fill-rule="evenodd" clip-rule="evenodd" d="M121.272 31.5002C121.272 31.5948 121.272 31.6894 121.272 31.784C121.272 31.8786 121.179 31.9732 121.179 32.0678C121.085 32.1624 121.085 32.257 120.992 32.257C120.899 32.3516 120.805 32.3516 120.712 32.4462C120.618 32.4462 120.525 32.5408 120.432 32.5408C120.338 32.5408 120.245 32.5408 120.058 32.5408H119.125H119.031C119.031 32.5408 118.938 32.4462 118.938 32.3516V29.1353C118.938 29.0408 118.938 29.0408 119.031 28.9462H119.125H119.965C120.152 28.9462 120.338 28.9462 120.525 29.0408C120.618 29.0408 120.805 29.1353 120.899 29.2299C120.992 29.3245 121.085 29.4191 121.085 29.5137C121.179 29.6083 121.179 29.7975 121.179 29.8921C121.179 29.9867 121.179 30.0813 121.179 30.1759C121.179 30.2705 121.085 30.3651 121.085 30.3651C121.085 30.4597 120.992 30.4597 120.899 30.5543C120.805 30.6489 120.805 30.6489 120.712 30.6489C120.805 30.6489 120.899 30.7435 120.992 30.7435C121.085 30.838 121.179 30.838 121.179 30.9326C121.272 31.0272 121.272 31.1218 121.365 31.2164C121.179 31.311 121.272 31.4056 121.272 31.5002ZM120.525 29.8921C120.525 29.7975 120.525 29.7029 120.525 29.6083C120.525 29.5137 120.432 29.5137 120.432 29.4191C120.338 29.3245 120.338 29.3245 120.245 29.3245C120.152 29.3245 120.058 29.3245 119.965 29.3245H119.498V30.4597H120.058C120.152 30.4597 120.245 30.4597 120.338 30.3651C120.432 30.3651 120.432 30.2705 120.525 30.2705C120.618 30.1759 120.618 30.1759 120.618 30.0813C120.525 30.0813 120.525 29.9867 120.525 29.8921ZM120.712 31.5948C120.712 31.5002 120.712 31.4056 120.618 31.311C120.618 31.2164 120.525 31.1218 120.432 31.1218C120.338 31.0272 120.245 31.0272 120.152 31.0272C120.058 31.0272 119.965 31.0272 119.778 31.0272H119.218V32.1624H119.872C119.965 32.1624 120.058 32.1624 120.152 32.1624C120.245 32.1624 120.338 32.0678 120.338 32.0678C120.432 31.9732 120.432 31.9732 120.525 31.8786C120.712 31.784 120.712 31.6894 120.712 31.5948ZM128.367 30.7435C128.367 31.0272 128.367 31.311 128.274 31.5002C128.18 31.6894 128.087 31.9732 127.994 32.0678C127.9 32.257 127.714 32.3516 127.527 32.4462C127.34 32.5408 127.06 32.5408 126.78 32.5408C126.5 32.5408 126.313 32.5408 126.127 32.4462C125.94 32.3516 125.753 32.257 125.66 32.0678C125.566 31.8786 125.473 31.6894 125.38 31.5002C125.286 31.311 125.286 31.0272 125.286 30.7435C125.286 30.4597 125.286 30.1759 125.38 29.9867C125.473 29.7975 125.566 29.5137 125.66 29.4191C125.753 29.2299 125.94 29.1353 126.127 29.0408C126.313 28.9462 126.593 28.9462 126.873 28.9462C127.153 28.9462 127.34 28.9462 127.527 29.0408C127.714 29.1353 127.9 29.2299 127.994 29.4191C128.087 29.6083 128.18 29.7975 128.274 29.9867C128.367 30.1759 128.367 30.4597 128.367 30.7435ZM127.9 30.7435C127.9 30.5543 127.9 30.3651 127.807 30.1759C127.807 29.9867 127.714 29.8921 127.62 29.7029C127.527 29.6083 127.434 29.5137 127.247 29.4191C127.153 29.3245 126.967 29.3245 126.687 29.3245C126.407 29.3245 126.313 29.3245 126.127 29.4191C126.033 29.5137 125.846 29.6083 125.753 29.7029C125.66 29.7975 125.566 29.9867 125.566 30.1759C125.566 30.3651 125.473 30.5543 125.473 30.7435C125.473 30.9326 125.473 31.1218 125.566 31.311C125.566 31.5002 125.66 31.5948 125.753 31.784C125.846 31.8786 125.94 31.9732 126.127 32.0678C126.22 32.1624 126.407 32.1624 126.687 32.1624C126.873 32.1624 127.06 32.1624 127.247 32.0678C127.434 31.9732 127.527 31.8786 127.62 31.784C127.714 31.6894 127.807 31.5002 127.807 31.311C127.9 31.1218 127.9 30.9326 127.9 30.7435ZM135.462 33.3921C135.369 33.4867 135.369 33.4867 135.369 33.4867H135.276H135.182C135.182 33.4867 135.182 33.4867 135.089 33.4867V32.6353H132.382V33.4867C132.382 33.4867 132.382 33.4867 132.288 33.4867H132.195H132.101H132.008V32.3516C132.008 32.257 132.008 32.257 132.008 32.257H132.101H132.288C132.382 32.1624 132.382 32.1624 132.475 32.0678C132.475 31.9732 132.568 31.8786 132.568 31.784C132.568 31.6894 132.662 31.5948 132.662 31.4056C132.662 31.311 132.755 31.1218 132.755 30.9326C132.755 30.7435 132.848 30.4597 132.848 30.1759C132.848 29.8921 132.942 29.6083 132.942 29.2299C132.942 29.1353 132.942 29.1353 133.035 29.0408L133.128 28.9462H134.715C134.809 28.9462 134.809 28.9462 134.809 29.0408C134.809 29.0408 134.809 29.1353 134.809 29.2299V32.1624H135.182H135.276V32.257V33.3921H135.462ZM134.529 29.4191H133.502C133.502 29.7975 133.408 30.0813 133.408 30.2705C133.408 30.5543 133.315 30.7435 133.315 30.9326C133.315 31.1218 133.222 31.311 133.222 31.4056C133.222 31.5002 133.128 31.6894 133.128 31.784C133.128 31.8786 133.035 31.9732 133.035 31.9732C133.035 32.0678 132.942 32.0678 132.942 32.1624H134.715V29.4191H134.529ZM146.759 29.9867C146.759 30.1759 146.759 30.3651 146.665 30.4597C146.572 30.6489 146.479 30.7435 146.385 30.838C146.292 30.9326 146.105 31.0272 146.012 31.0272C145.825 31.1218 145.638 31.1218 145.452 31.1218H145.078V32.4462C145.078 32.4462 145.078 32.4462 144.985 32.4462H144.891C144.798 32.4462 144.798 32.4462 144.798 32.4462H144.705V29.1353C144.705 29.0408 144.705 29.0408 144.798 28.9462L144.891 28.8516H145.638C145.732 28.8516 145.825 28.8516 145.825 28.8516C145.918 28.8516 146.012 28.8516 146.105 28.8516C146.198 28.8516 146.292 28.9462 146.385 28.9462C146.479 29.0408 146.572 29.0408 146.665 29.1353C146.759 29.2299 146.759 29.3245 146.852 29.4191C146.759 29.7975 146.759 29.8921 146.759 29.9867ZM146.292 30.0813C146.292 29.8921 146.292 29.7975 146.198 29.7029C146.105 29.6083 146.105 29.5137 146.012 29.5137C145.918 29.5137 145.825 29.4191 145.732 29.4191C145.638 29.4191 145.545 29.4191 145.452 29.4191H144.985V30.838H145.452C145.638 30.838 145.732 30.838 145.825 30.7435C145.918 30.7435 146.012 30.6489 146.105 30.5543C146.198 30.4597 146.198 30.4597 146.292 30.3651C146.292 30.2705 146.292 30.1759 146.292 30.0813ZM152.36 31.5948C152.267 31.784 152.173 31.9732 152.08 32.1624C151.987 32.257 151.893 32.4462 151.893 32.4462C151.8 32.5408 151.707 32.5408 151.613 32.6353C151.52 32.6353 151.427 32.6353 151.333 32.6353H151.24H151.146H151.053H150.96C150.96 32.6353 150.96 32.6353 150.96 32.5408V32.4462C150.96 32.3516 150.96 32.3516 150.96 32.257C150.96 32.257 150.96 32.1624 151.053 32.1624C151.053 32.1624 151.053 32.1624 151.146 32.1624C151.146 32.1624 151.146 32.1624 151.24 32.1624H151.333H151.427C151.52 32.1624 151.52 32.1624 151.52 32.1624C151.52 32.1624 151.613 32.1624 151.613 32.0678L151.707 31.9732C151.707 31.8786 151.8 31.784 151.8 31.6894L150.586 29.1353V29.0408C150.586 29.0408 150.586 29.0408 150.586 28.9462C150.586 28.9462 150.586 28.9462 150.68 28.9462H150.773C150.866 28.9462 150.866 28.9462 150.866 28.9462H150.96C150.96 28.9462 150.96 28.9462 151.053 28.9462C151.053 28.9462 151.053 28.9462 151.053 29.0408L151.707 30.3651C151.8 30.5543 151.8 30.6489 151.893 30.7435C151.987 30.838 151.987 31.0272 152.08 31.1218C152.173 31.0272 152.173 30.838 152.267 30.7435C152.36 30.6489 152.36 30.4597 152.453 30.2705L152.92 28.9462H153.014H153.107C153.2 28.9462 153.2 28.9462 153.2 28.9462H153.294C153.294 28.9462 153.294 28.9462 153.294 29.0408L152.36 31.5948ZM159.735 32.4462C159.642 32.5408 159.642 32.5408 159.642 32.5408H159.549C159.455 32.5408 159.455 32.5408 159.455 32.5408H159.362C159.362 32.5408 159.362 32.5408 159.362 32.4462L159.082 31.5948C159.082 31.5002 158.988 31.4056 158.895 31.311C158.802 31.2164 158.802 31.1218 158.708 31.1218C158.615 31.0272 158.522 31.0272 158.522 31.0272C158.428 31.0272 158.335 31.0272 158.242 31.0272H158.055V32.6353C158.055 32.6353 158.055 32.6353 157.962 32.6353H157.868H157.775H157.681V29.2299C157.681 29.2299 157.681 29.2299 157.775 29.2299H157.868H157.962H158.055V30.7435H158.242C158.335 30.7435 158.428 30.7435 158.522 30.7435C158.615 30.7435 158.708 30.6489 158.708 30.6489C158.802 30.5543 158.802 30.5543 158.895 30.4597C158.988 30.3651 158.988 30.2705 158.988 30.1759L159.269 29.4191C159.269 29.4191 159.269 29.4191 159.269 29.3245C159.269 29.3245 159.269 29.3245 159.362 29.3245H159.455C159.549 29.3245 159.549 29.3245 159.549 29.3245H159.642C159.642 29.3245 159.642 29.3245 159.642 29.4191V29.5137L159.362 30.2705C159.362 30.3651 159.269 30.4597 159.269 30.5543C159.269 30.6489 159.175 30.7435 159.082 30.7435C158.988 30.838 158.988 30.838 158.895 30.9326C158.802 30.9326 158.802 31.0272 158.708 31.0272C158.802 31.0272 158.895 31.1218 158.895 31.1218C158.988 31.1218 158.988 31.2164 159.082 31.311C159.175 31.4056 159.175 31.4056 159.269 31.5002C159.362 31.5948 159.362 31.6894 159.362 31.784L159.735 32.6353C159.735 32.3516 159.735 32.4462 159.735 32.4462ZM166.55 32.3516V32.4462C166.55 32.4462 166.55 32.4462 166.55 32.5408C166.55 32.5408 166.55 32.5408 166.457 32.5408H166.364C166.27 32.5408 166.27 32.5408 166.27 32.5408H166.177L165.897 31.6894H164.31L164.03 32.5408C164.03 32.5408 164.03 32.5408 163.936 32.5408H163.843C163.75 32.5408 163.75 32.5408 163.75 32.5408H163.656C163.656 32.5408 163.656 32.5408 163.656 32.4462V32.3516L164.87 29.0408C164.87 29.0408 164.87 29.0408 164.87 28.9462C164.87 28.9462 164.87 28.9462 164.963 28.9462H165.057H165.15C165.243 28.9462 165.243 28.9462 165.337 28.9462H165.43C165.43 28.9462 165.43 28.9462 165.524 28.9462C165.524 28.9462 165.524 28.9462 165.524 29.0408L166.55 32.3516ZM165.057 29.4191L164.403 31.2164H165.617L165.057 29.4191ZM172.992 31.5002C172.992 31.5948 172.992 31.6894 172.992 31.784C172.992 31.8786 172.899 31.9732 172.899 32.0678C172.805 32.1624 172.805 32.257 172.712 32.257C172.619 32.3516 172.525 32.3516 172.432 32.4462C172.339 32.4462 172.245 32.5408 172.152 32.5408C172.059 32.5408 171.965 32.5408 171.779 32.5408H170.845H170.752C170.752 32.5408 170.658 32.4462 170.658 32.3516V29.1353C170.658 29.0408 170.658 29.0408 170.752 28.9462H170.845H171.685C171.872 28.9462 172.059 28.9462 172.245 29.0408C172.339 29.0408 172.525 29.1353 172.619 29.2299C172.712 29.3245 172.805 29.4191 172.805 29.5137C172.899 29.6083 172.899 29.7975 172.899 29.8921C172.899 29.9867 172.899 30.0813 172.899 30.1759C172.899 30.2705 172.805 30.3651 172.805 30.3651C172.805 30.4597 172.712 30.4597 172.619 30.5543C172.525 30.6489 172.525 30.6489 172.432 30.6489C172.525 30.6489 172.619 30.7435 172.712 30.7435C172.805 30.838 172.899 30.838 172.899 30.9326C172.992 31.0272 172.992 31.1218 173.086 31.2164C172.899 31.311 172.992 31.4056 172.992 31.5002ZM172.245 29.8921C172.245 29.7975 172.245 29.7029 172.245 29.6083C172.245 29.5137 172.152 29.5137 172.152 29.4191C172.059 29.3245 172.059 29.3245 171.965 29.3245C171.872 29.3245 171.779 29.3245 171.592 29.3245H171.125V30.4597H171.685C171.779 30.4597 171.872 30.4597 171.965 30.3651C172.059 30.3651 172.059 30.2705 172.152 30.2705C172.245 30.1759 172.245 30.1759 172.245 30.0813C172.245 30.0813 172.245 29.9867 172.245 29.8921ZM172.432 31.5948C172.432 31.5002 172.432 31.4056 172.339 31.311C172.339 31.2164 172.245 31.1218 172.152 31.1218C172.059 31.0272 171.965 31.0272 171.872 31.0272C171.779 31.0272 171.685 31.0272 171.498 31.0272H170.938V32.1624H171.592C171.685 32.1624 171.779 32.1624 171.872 32.1624C171.965 32.1624 172.059 32.0678 172.059 32.0678C172.152 31.9732 172.152 31.9732 172.245 31.8786C172.432 31.784 172.432 31.6894 172.432 31.5948ZM180.087 30.7435C180.087 31.0272 180.087 31.311 179.994 31.5002C179.901 31.6894 179.807 31.9732 179.714 32.0678C179.621 32.257 179.434 32.3516 179.247 32.4462C179.06 32.5408 178.78 32.5408 178.5 32.5408C178.22 32.5408 178.033 32.5408 177.847 32.4462C177.66 32.3516 177.473 32.257 177.38 32.0678C177.287 31.8786 177.193 31.6894 177.1 31.5002C177.007 31.311 177.007 31.0272 177.007 30.7435C177.007 30.4597 177.007 30.1759 177.1 29.9867C177.193 29.7975 177.287 29.5137 177.38 29.4191C177.473 29.2299 177.66 29.1353 177.847 29.0408C178.033 28.9462 178.314 28.9462 178.594 28.9462C178.874 28.9462 179.06 28.9462 179.247 29.0408C179.434 29.1353 179.621 29.2299 179.714 29.4191C179.807 29.6083 179.901 29.7975 179.994 29.9867C180.087 30.1759 180.087 30.4597 180.087 30.7435ZM179.621 30.7435C179.621 30.5543 179.621 30.3651 179.527 30.1759C179.527 29.9867 179.434 29.8921 179.34 29.7029C179.247 29.6083 179.154 29.5137 178.967 29.4191C178.874 29.3245 178.687 29.3245 178.407 29.3245C178.22 29.3245 178.033 29.3245 177.94 29.4191C177.847 29.5137 177.66 29.6083 177.567 29.7029C177.473 29.7975 177.38 29.9867 177.38 30.1759C177.38 30.3651 177.287 30.5543 177.287 30.7435C177.287 30.9326 177.287 31.1218 177.38 31.311C177.38 31.5002 177.473 31.5948 177.567 31.784C177.66 31.8786 177.753 31.9732 177.94 32.0678C178.033 32.1624 178.22 32.1624 178.5 32.1624C178.78 32.1624 178.874 32.1624 179.06 32.0678C179.247 31.9732 179.34 31.8786 179.434 31.784C179.527 31.6894 179.621 31.5002 179.621 31.311C179.621 31.1218 179.621 30.9326 179.621 30.7435ZM186.716 31.5002C186.716 31.5948 186.716 31.6894 186.716 31.784C186.716 31.8786 186.622 31.9732 186.622 32.0678C186.529 32.1624 186.529 32.257 186.436 32.257C186.342 32.3516 186.249 32.3516 186.156 32.4462C186.062 32.4462 185.969 32.5408 185.876 32.5408C185.782 32.5408 185.689 32.5408 185.502 32.5408H184.569H184.475C184.475 32.5408 184.382 32.4462 184.382 32.3516V29.1353C184.382 29.0408 184.382 29.0408 184.475 28.9462H184.569H185.409C185.595 28.9462 185.782 28.9462 185.969 29.0408C186.062 29.0408 186.249 29.1353 186.342 29.2299C186.436 29.3245 186.529 29.4191 186.529 29.5137C186.529 29.6083 186.622 29.7975 186.622 29.8921C186.622 29.9867 186.622 30.0813 186.622 30.1759C186.622 30.2705 186.529 30.3651 186.529 30.3651C186.529 30.4597 186.436 30.4597 186.342 30.5543C186.249 30.6489 186.249 30.6489 186.156 30.6489C186.249 30.6489 186.342 30.7435 186.436 30.7435C186.529 30.838 186.622 30.838 186.622 30.9326C186.716 31.0272 186.716 31.1218 186.809 31.2164C186.622 31.311 186.716 31.4056 186.716 31.5002ZM185.969 29.8921C185.969 29.7975 185.969 29.7029 185.969 29.6083C185.969 29.5137 185.876 29.5137 185.876 29.4191C185.782 29.3245 185.782 29.3245 185.689 29.3245C185.595 29.3245 185.502 29.3245 185.409 29.3245H184.849V30.4597H185.409C185.502 30.4597 185.595 30.4597 185.689 30.3651C185.782 30.3651 185.782 30.2705 185.876 30.2705C185.969 30.1759 185.969 30.1759 185.969 30.0813C185.969 30.0813 185.969 29.9867 185.969 29.8921ZM186.156 31.5948C186.156 31.5002 186.156 31.4056 186.062 31.311C186.062 31.2164 185.969 31.1218 185.876 31.1218C185.782 31.0272 185.689 31.0272 185.595 31.0272C185.502 31.0272 185.409 31.0272 185.222 31.0272H184.849V32.1624H185.502C185.595 32.1624 185.689 32.1624 185.782 32.1624C185.876 32.1624 185.969 32.0678 185.969 32.0678C186.062 31.9732 186.062 31.9732 186.156 31.8786C186.156 31.784 186.156 31.6894 186.156 31.5948ZM198.292 31.5002C198.292 31.5948 198.292 31.6894 198.292 31.784C198.292 31.8786 198.199 31.9732 198.199 32.0678C198.105 32.1624 198.105 32.257 198.012 32.257C197.919 32.3516 197.825 32.3516 197.732 32.4462C197.639 32.4462 197.545 32.5408 197.452 32.5408C197.359 32.5408 197.265 32.5408 197.078 32.5408H196.145H196.052C196.052 32.5408 195.958 32.4462 195.958 32.3516V29.1353C195.958 29.0408 195.958 29.0408 196.052 28.9462H196.145H196.985C197.172 28.9462 197.359 28.9462 197.545 29.0408C197.639 29.0408 197.825 29.1353 197.919 29.2299C198.012 29.3245 198.105 29.4191 198.105 29.5137C198.199 29.6083 198.199 29.7975 198.199 29.8921C198.199 29.9867 198.199 30.0813 198.199 30.1759C198.199 30.2705 198.105 30.3651 198.105 30.3651C198.105 30.4597 198.012 30.4597 197.919 30.5543C197.825 30.6489 197.825 30.6489 197.732 30.6489C197.825 30.6489 197.919 30.7435 198.012 30.7435C198.105 30.838 198.199 30.838 198.199 30.9326C198.292 31.0272 198.292 31.1218 198.385 31.2164C198.199 31.311 198.292 31.4056 198.292 31.5002ZM197.545 29.8921C197.545 29.7975 197.545 29.7029 197.545 29.6083C197.545 29.5137 197.452 29.5137 197.452 29.4191C197.359 29.3245 197.359 29.3245 197.265 29.3245C197.172 29.3245 197.078 29.3245 196.892 29.3245H196.425V30.4597H196.985C197.078 30.4597 197.172 30.4597 197.265 30.3651C197.359 30.3651 197.359 30.2705 197.452 30.2705C197.545 30.1759 197.545 30.1759 197.545 30.0813C197.545 30.0813 197.545 29.9867 197.545 29.8921ZM197.732 31.5948C197.732 31.5002 197.732 31.4056 197.639 31.311C197.639 31.2164 197.545 31.1218 197.452 31.1218C197.359 31.0272 197.265 31.0272 197.172 31.0272C197.078 31.0272 196.985 31.0272 196.798 31.0272H196.238V32.1624H196.892C196.985 32.1624 197.078 32.1624 197.172 32.1624C197.265 32.1624 197.359 32.0678 197.359 32.0678C197.452 31.9732 197.452 31.9732 197.545 31.8786C197.732 31.784 197.732 31.6894 197.732 31.5948ZM205.761 32.4462C205.667 32.5408 205.667 32.5408 205.667 32.5408H205.574C205.481 32.5408 205.481 32.5408 205.481 32.5408H205.387V29.1353C205.387 29.1353 205.387 29.1353 205.481 29.1353H205.574H205.667H205.761V32.4462ZM204.734 31.4056C204.734 31.5948 204.734 31.6894 204.64 31.784C204.547 31.8786 204.547 32.0678 204.454 32.1624C204.36 32.257 204.174 32.3516 204.08 32.4462C203.894 32.5408 203.707 32.5408 203.427 32.5408H202.587C202.587 32.5408 202.587 32.5408 202.493 32.5408C202.493 32.5408 202.493 32.5408 202.4 32.5408C202.4 32.5408 202.4 32.5408 202.4 32.4462V32.3516V29.0408C202.4 29.0408 202.4 29.0408 202.493 29.0408H202.587C202.68 29.0408 202.68 29.0408 202.68 29.0408H202.773V30.3651H203.24C203.52 30.3651 203.707 30.3651 203.894 30.4597C204.08 30.4597 204.174 30.5543 204.267 30.6489C204.36 30.7435 204.454 30.838 204.547 30.9326C204.734 31.1218 204.734 31.311 204.734 31.4056ZM204.267 31.5002C204.267 31.4056 204.267 31.311 204.174 31.2164C204.174 31.1218 204.08 31.0272 203.987 31.0272C203.894 30.9326 203.8 30.9326 203.707 30.9326C203.614 30.9326 203.427 30.838 203.24 30.838H202.773V32.1624H203.24C203.427 32.1624 203.614 32.1624 203.707 32.0678C203.8 32.0678 203.894 31.9732 203.987 31.8786C204.08 31.784 204.08 31.784 204.08 31.6894C204.267 31.5948 204.267 31.5948 204.267 31.5002ZM212.576 32.0678C212.576 32.1624 212.576 32.1624 212.576 32.1624L212.483 32.257C212.389 32.257 212.389 32.3516 212.296 32.3516C212.202 32.3516 212.109 32.4462 212.016 32.4462C211.922 32.4462 211.736 32.4462 211.642 32.4462C211.456 32.4462 211.176 32.4462 210.989 32.3516C210.802 32.257 210.615 32.1624 210.522 31.9732C210.429 31.784 210.335 31.5948 210.242 31.4056C210.149 31.2164 210.149 30.9326 210.149 30.6489C210.149 30.3651 210.149 30.0813 210.242 29.8921C210.335 29.7029 210.429 29.4191 210.522 29.3245C210.615 29.1353 210.802 29.0408 210.989 28.9462C211.176 28.8516 211.362 28.8516 211.642 28.8516C211.736 28.8516 211.829 28.8516 211.922 28.8516C212.016 28.8516 212.109 28.8516 212.202 28.9462C212.296 28.9462 212.389 29.0408 212.389 29.0408C212.483 29.0408 212.483 29.1353 212.483 29.1353C212.483 29.1353 212.483 29.1353 212.576 29.2299C212.576 29.2299 212.576 29.2299 212.576 29.3245V29.4191V29.5137V29.6083C212.576 29.6083 212.483 29.6083 212.483 29.5137C212.483 29.5137 212.389 29.4191 212.296 29.4191C212.202 29.4191 212.109 29.3245 212.016 29.3245C211.922 29.3245 211.829 29.2299 211.642 29.2299C211.456 29.2299 211.362 29.2299 211.176 29.3245C211.082 29.4191 210.895 29.5137 210.802 29.6083C210.709 29.7029 210.615 29.8921 210.615 30.0813C210.522 30.2705 210.522 30.4597 210.522 30.6489C210.522 30.8381 210.522 31.1218 210.615 31.2164C210.709 31.4056 210.709 31.5002 210.802 31.6894C210.895 31.784 210.989 31.8786 211.176 31.9732C211.269 32.0678 211.456 32.0678 211.642 32.0678C211.829 32.0678 211.922 32.0678 212.016 31.9732C212.109 31.9732 212.202 31.8786 212.296 31.8786C212.389 31.8786 212.389 31.784 212.483 31.784C212.576 31.784 212.576 31.6894 212.576 31.6894C212.576 31.6894 212.576 31.6894 212.576 31.784C212.576 31.9732 212.576 31.9732 212.576 32.0678Z" fill="#333333"/>
</g>
<defs>
<clipPath id="clip0_101_1196">
<rect width="305" height="35" fill="white"/>
</clipPath>
</defs>
</svg>
